<mxfile host="app.diagrams.net" modified="2024-01-02T08:55:57.377Z" agent="Mozilla/5.0 (Windows NT 10.0; Win64; x64) AppleWebKit/537.36 (KHTML, like Gecko) Chrome/119.0.0.0 Safari/537.36" etag="IZC6zjN-D6_mAmCPXXr-" version="22.1.16" type="github">
  <diagram name="Page-1" id="97916047-d0de-89f5-080d-49f4d83e522f">
    <mxGraphModel dx="1194" dy="728" grid="1" gridSize="10" guides="1" tooltips="1" connect="1" arrows="1" fold="1" page="1" pageScale="1.5" pageWidth="1169" pageHeight="827" background="none" math="0" shadow="0">
      <root>
        <mxCell id="0" />
        <mxCell id="1" parent="0" />
        <mxCell id="2" value="מנהל מחלקת דאטה&#xa;ניר שחר" style="rounded=1;fillColor=#10739E;strokeColor=none;shadow=1;gradientColor=none;fontStyle=1;fontColor=#FFFFFF;fontSize=14;" parent="1" vertex="1">
          <mxGeometry x="672" y="205.5" width="200" height="60" as="geometry" />
        </mxCell>
        <mxCell id="3" value="מנהלת פתרון טאבלו&#xa;ענת אחימס&#xa;" style="rounded=1;fillColor=#10739E;strokeColor=none;shadow=1;gradientColor=none;fontStyle=1;fontColor=#FFFFFF;fontSize=14;" parent="1" vertex="1">
          <mxGeometry x="662" y="345.5" width="220" height="60" as="geometry" />
        </mxCell>
        <mxCell id="7" value="מנהל פיתוח&#xa;איתי ברן" style="rounded=1;fillColor=#97D077;strokeColor=none;shadow=1;gradientColor=none;fontStyle=1;fontColor=#FFFFFF;fontSize=14;" parent="1" vertex="1">
          <mxGeometry x="840" y="450" width="200" height="60" as="geometry" />
        </mxCell>
        <mxCell id="9" value="אדמיניסטרטור&#xa;אנדריי טס" style="rounded=1;fillColor=#10739E;strokeColor=none;shadow=1;gradientColor=none;fontStyle=1;fontColor=#FFFFFF;fontSize=14;" parent="1" vertex="1">
          <mxGeometry x="420" y="727" width="200" height="60" as="geometry" />
        </mxCell>
        <mxCell id="13" value="פיתוח&#xa;אירינה קרסיק" style="rounded=1;fillColor=#10739E;strokeColor=none;shadow=1;gradientColor=none;fontStyle=1;fontColor=#FFFFFF;fontSize=14;" parent="1" vertex="1">
          <mxGeometry x="955" y="750" width="200" height="60" as="geometry" />
        </mxCell>
        <mxCell id="14" value="DE &#xa;אלישבע לוי" style="rounded=1;fillColor=#10739E;strokeColor=none;shadow=1;gradientColor=none;fontStyle=1;fontColor=#FFFFFF;fontSize=14;" parent="1" vertex="1">
          <mxGeometry x="1100" y="895" width="200" height="60" as="geometry" />
        </mxCell>
        <mxCell id="15" value="DE&#xa;יפעת אזולאי" style="rounded=1;fillColor=#10739E;strokeColor=none;shadow=1;gradientColor=none;fontStyle=1;fontColor=#FFFFFF;fontSize=14;" parent="1" vertex="1">
          <mxGeometry x="1100" y="985" width="200" height="60" as="geometry" />
        </mxCell>
        <mxCell id="19" value="DE&#xa;נועם מימון" style="rounded=1;fillColor=#10739E;strokeColor=none;shadow=1;gradientColor=none;fontStyle=1;fontColor=#FFFFFF;fontSize=14;" parent="1" vertex="1">
          <mxGeometry x="860" y="890" width="200" height="60" as="geometry" />
        </mxCell>
        <mxCell id="20" value="DE&#xa;שי כהן" style="rounded=1;fillColor=#10739E;strokeColor=none;shadow=1;gradientColor=none;fontStyle=1;fontColor=#FFFFFF;fontSize=14;" parent="1" vertex="1">
          <mxGeometry x="860" y="995" width="200" height="60" as="geometry" />
        </mxCell>
        <mxCell id="23" value="ארכיטקטורה&#xa;אנדריי טס" style="rounded=1;fillColor=#10739E;strokeColor=none;shadow=1;gradientColor=none;fontStyle=1;fontColor=#FFFFFF;fontSize=14;" parent="1" vertex="1">
          <mxGeometry x="650" y="727" width="200" height="60" as="geometry" />
        </mxCell>
        <mxCell id="29" value="" style="edgeStyle=elbowEdgeStyle;elbow=vertical;strokeWidth=4;endArrow=block;endFill=1;fontStyle=1;strokeColor=#23445D;" parent="1" source="2" target="3" edge="1">
          <mxGeometry x="22" y="165.5" width="100" height="100" as="geometry">
            <mxPoint x="22" y="265.5" as="sourcePoint" />
            <mxPoint x="122" y="165.5" as="targetPoint" />
          </mxGeometry>
        </mxCell>
        <mxCell id="37" value="" style="edgeStyle=elbowEdgeStyle;elbow=vertical;strokeWidth=4;endArrow=block;endFill=1;fontStyle=1;strokeColor=#23445D;exitX=0.5;exitY=1;exitDx=0;exitDy=0;entryX=0.5;entryY=0;entryDx=0;entryDy=0;" parent="1" source="13" target="19" edge="1">
          <mxGeometry x="130" y="362" width="100" height="100" as="geometry">
            <mxPoint x="1078" y="796.5" as="sourcePoint" />
            <mxPoint x="1058" y="1006" as="targetPoint" />
            <Array as="points">
              <mxPoint x="888" y="856" />
              <mxPoint x="1088" y="836.5" />
            </Array>
          </mxGeometry>
        </mxCell>
        <mxCell id="38" value="" style="edgeStyle=elbowEdgeStyle;elbow=vertical;strokeWidth=4;endArrow=block;endFill=1;fontStyle=1;strokeColor=#23445D;exitX=0.118;exitY=1.058;exitDx=0;exitDy=0;entryX=0.5;entryY=0;entryDx=0;entryDy=0;exitPerimeter=0;" parent="1" source="3" target="9" edge="1">
          <mxGeometry x="-39" y="304" width="100" height="100" as="geometry">
            <mxPoint x="650" y="620" as="sourcePoint" />
            <mxPoint x="61" y="304" as="targetPoint" />
            <Array as="points">
              <mxPoint x="440" y="670" />
            </Array>
          </mxGeometry>
        </mxCell>
        <mxCell id="42" value="" style="edgeStyle=elbowEdgeStyle;elbow=vertical;strokeWidth=4;endArrow=block;endFill=1;fontStyle=1;strokeColor=#23445D;entryX=0.5;entryY=0;entryDx=0;entryDy=0;" parent="1" source="13" target="14" edge="1">
          <mxGeometry x="818" y="434.5" width="100" height="100" as="geometry">
            <mxPoint x="818" y="534.5" as="sourcePoint" />
            <mxPoint x="918" y="434.5" as="targetPoint" />
            <Array as="points">
              <mxPoint x="1178" y="856" />
              <mxPoint x="1188" y="916" />
            </Array>
          </mxGeometry>
        </mxCell>
        <mxCell id="43" value="" style="edgeStyle=elbowEdgeStyle;elbow=vertical;strokeWidth=4;endArrow=block;endFill=1;fontStyle=1;strokeColor=#23445D;" parent="1" source="14" target="15" edge="1">
          <mxGeometry x="610" y="365" width="100" height="100" as="geometry">
            <mxPoint x="610" y="465" as="sourcePoint" />
            <mxPoint x="710" y="365" as="targetPoint" />
          </mxGeometry>
        </mxCell>
        <mxCell id="47" value="" style="edgeStyle=elbowEdgeStyle;elbow=vertical;strokeWidth=4;endArrow=block;endFill=1;fontStyle=1;strokeColor=#23445D;" parent="1" source="19" target="20" edge="1">
          <mxGeometry x="90" y="375" width="100" height="100" as="geometry">
            <mxPoint x="90" y="475" as="sourcePoint" />
            <mxPoint x="190" y="375" as="targetPoint" />
          </mxGeometry>
        </mxCell>
        <mxCell id="rTIktwFIz4IESTL18eKh-55" value="הגנת מידע" style="rounded=1;fillColor=#17A9E8;strokeColor=none;shadow=1;gradientColor=none;fontStyle=1;fontColor=#FFFFFF;fontSize=14;" parent="1" vertex="1">
          <mxGeometry x="241" y="440" width="200" height="60" as="geometry" />
        </mxCell>
        <mxCell id="rTIktwFIz4IESTL18eKh-56" value="ארכיטקטורה" style="rounded=1;fillColor=#17A9E8;strokeColor=none;shadow=1;gradientColor=none;fontStyle=1;fontColor=#FFFFFF;fontSize=14;" parent="1" vertex="1">
          <mxGeometry x="20" y="440" width="200" height="60" as="geometry" />
        </mxCell>
        <mxCell id="rTIktwFIz4IESTL18eKh-57" value="" style="edgeStyle=elbowEdgeStyle;elbow=vertical;strokeWidth=4;endArrow=block;endFill=1;fontStyle=1;dashed=1;strokeColor=#23445D;entryX=0.5;entryY=0;entryDx=0;entryDy=0;exitX=0;exitY=0.25;exitDx=0;exitDy=0;" parent="1" source="3" target="rTIktwFIz4IESTL18eKh-56" edge="1">
          <mxGeometry x="-710" y="219.5" width="100" height="100" as="geometry">
            <mxPoint x="770" y="410" as="sourcePoint" />
            <mxPoint x="640" y="510" as="targetPoint" />
            <Array as="points">
              <mxPoint x="460" y="360" />
            </Array>
          </mxGeometry>
        </mxCell>
        <mxCell id="rTIktwFIz4IESTL18eKh-58" value="" style="edgeStyle=elbowEdgeStyle;elbow=vertical;strokeWidth=4;endArrow=block;endFill=1;fontStyle=1;dashed=1;strokeColor=#23445D;entryX=0.5;entryY=0;entryDx=0;entryDy=0;exitX=0;exitY=0.25;exitDx=0;exitDy=0;" parent="1" source="3" target="rTIktwFIz4IESTL18eKh-55" edge="1">
          <mxGeometry x="-700" y="229.5" width="100" height="100" as="geometry">
            <mxPoint x="660" y="370" as="sourcePoint" />
            <mxPoint x="290" y="440" as="targetPoint" />
            <Array as="points">
              <mxPoint x="570" y="360" />
              <mxPoint x="590" y="380" />
            </Array>
          </mxGeometry>
        </mxCell>
        <mxCell id="rTIktwFIz4IESTL18eKh-60" value="סיסטם" style="rounded=1;fillColor=#17A9E8;strokeColor=none;shadow=1;gradientColor=none;fontStyle=1;fontColor=#FFFFFF;fontSize=14;" parent="1" vertex="1">
          <mxGeometry x="1082" y="450" width="200" height="60" as="geometry" />
        </mxCell>
        <mxCell id="rTIktwFIz4IESTL18eKh-61" value="" style="edgeStyle=elbowEdgeStyle;elbow=vertical;strokeWidth=4;endArrow=block;endFill=1;fontStyle=1;dashed=1;strokeColor=#23445D;exitX=1;exitY=0.25;exitDx=0;exitDy=0;" parent="1" source="3" edge="1">
          <mxGeometry x="32" y="171.5" width="100" height="100" as="geometry">
            <mxPoint x="882" y="371.5" as="sourcePoint" />
            <mxPoint x="1182" y="450" as="targetPoint" />
            <Array as="points">
              <mxPoint x="1030" y="360" />
              <mxPoint x="1150" y="376" />
            </Array>
          </mxGeometry>
        </mxCell>
        <mxCell id="rTIktwFIz4IESTL18eKh-64" value="50%" style="ellipse;whiteSpace=wrap;html=1;aspect=fixed;fontStyle=1;fillColor=#1ba1e2;fontColor=#ffffff;strokeColor=#006EAF;strokeWidth=2;" parent="1" vertex="1">
          <mxGeometry x="1268" y="989.5" width="30" height="30" as="geometry" />
        </mxCell>
        <mxCell id="rTIktwFIz4IESTL18eKh-65" value="40%" style="ellipse;whiteSpace=wrap;html=1;aspect=fixed;fontStyle=1;fillColor=#1ba1e2;fontColor=#ffffff;strokeColor=#006EAF;strokeWidth=2;" parent="1" vertex="1">
          <mxGeometry x="818" y="821.5" width="30" height="30" as="geometry" />
        </mxCell>
        <mxCell id="rTIktwFIz4IESTL18eKh-68" value="50%" style="ellipse;whiteSpace=wrap;html=1;aspect=fixed;fontStyle=1;fillColor=#1ba1e2;fontColor=#ffffff;strokeColor=#006EAF;strokeWidth=2;" parent="1" vertex="1">
          <mxGeometry x="1030" y="894.5" width="30" height="30" as="geometry" />
        </mxCell>
        <mxCell id="rTIktwFIz4IESTL18eKh-69" value="50%" style="ellipse;whiteSpace=wrap;html=1;aspect=fixed;fontStyle=1;fillColor=#1ba1e2;fontColor=#ffffff;strokeColor=#006EAF;strokeWidth=2;" parent="1" vertex="1">
          <mxGeometry x="1268" y="899.5" width="30" height="30" as="geometry" />
        </mxCell>
        <mxCell id="rTIktwFIz4IESTL18eKh-70" value="50%" style="ellipse;whiteSpace=wrap;html=1;aspect=fixed;fontStyle=1;fillColor=#1ba1e2;fontColor=#ffffff;strokeColor=#006EAF;strokeWidth=2;direction=south;" parent="1" vertex="1">
          <mxGeometry x="770" y="563" width="30" height="30" as="geometry" />
        </mxCell>
        <mxCell id="HRantwCqe_uufsJNFs8z-56" value="50%" style="ellipse;whiteSpace=wrap;html=1;aspect=fixed;fontStyle=1;fillColor=#1ba1e2;fontColor=#ffffff;strokeColor=#006EAF;strokeWidth=2;" parent="1" vertex="1">
          <mxGeometry x="1125" y="754" width="30" height="30" as="geometry" />
        </mxCell>
        <mxCell id="HRantwCqe_uufsJNFs8z-58" value="40%" style="ellipse;whiteSpace=wrap;html=1;aspect=fixed;fontStyle=1;fillColor=#1ba1e2;fontColor=#ffffff;strokeColor=#006EAF;strokeWidth=2;" parent="1" vertex="1">
          <mxGeometry x="818" y="731.5" width="30" height="30" as="geometry" />
        </mxCell>
        <mxCell id="HRantwCqe_uufsJNFs8z-59" value="" style="edgeStyle=elbowEdgeStyle;elbow=vertical;strokeWidth=4;endArrow=block;endFill=1;fontStyle=1;strokeColor=#23445D;entryX=0.5;entryY=0;entryDx=0;entryDy=0;exitX=0.4;exitY=1.075;exitDx=0;exitDy=0;exitPerimeter=0;" parent="1" source="3" target="23" edge="1">
          <mxGeometry x="-231" y="335.5" width="100" height="100" as="geometry">
            <mxPoint x="700" y="620" as="sourcePoint" />
            <mxPoint x="540" y="730" as="targetPoint" />
            <Array as="points">
              <mxPoint x="650" y="700" />
              <mxPoint x="509" y="690" />
            </Array>
          </mxGeometry>
        </mxCell>
        <mxCell id="HRantwCqe_uufsJNFs8z-66" value="" style="edgeStyle=elbowEdgeStyle;elbow=vertical;strokeWidth=4;endArrow=block;endFill=1;fontStyle=1;dashed=1;strokeColor=#CCCCCC;exitX=0.75;exitY=1;exitDx=0;exitDy=0;entryX=0.673;entryY=0.008;entryDx=0;entryDy=0;entryPerimeter=0;" parent="1" source="7" target="13" edge="1">
          <mxGeometry x="32" y="395.5" width="100" height="100" as="geometry">
            <mxPoint x="882" y="595.5" as="sourcePoint" />
            <mxPoint x="1100" y="550" as="targetPoint" />
            <Array as="points">
              <mxPoint x="950" y="614" />
            </Array>
          </mxGeometry>
        </mxCell>
        <mxCell id="HRantwCqe_uufsJNFs8z-67" value="" style="edgeStyle=elbowEdgeStyle;elbow=vertical;strokeWidth=4;endArrow=block;endFill=1;fontStyle=1;dashed=1;strokeColor=#CCCCCC;exitX=1;exitY=0.5;exitDx=0;exitDy=0;startArrow=none;entryX=1;entryY=0.5;entryDx=0;entryDy=0;" parent="1" edge="1">
          <mxGeometry x="-78" y="440.5" width="100" height="100" as="geometry">
            <mxPoint x="800" y="590" as="sourcePoint" />
            <mxPoint x="800" y="590" as="targetPoint" />
            <Array as="points" />
          </mxGeometry>
        </mxCell>
        <mxCell id="HRantwCqe_uufsJNFs8z-71" value="" style="edgeStyle=elbowEdgeStyle;elbow=vertical;strokeWidth=4;endArrow=block;endFill=1;fontStyle=1;dashed=1;strokeColor=#CCCCCC;exitX=0.5;exitY=1;exitDx=0;exitDy=0;entryX=0.25;entryY=0;entryDx=0;entryDy=0;" parent="1" source="7" target="19" edge="1">
          <mxGeometry x="30" y="419.5" width="100" height="100" as="geometry">
            <mxPoint x="890" y="630" as="sourcePoint" />
            <mxPoint x="928" y="704" as="targetPoint" />
            <Array as="points">
              <mxPoint x="928" y="630" />
            </Array>
          </mxGeometry>
        </mxCell>
        <mxCell id="HRantwCqe_uufsJNFs8z-72" value="" style="edgeStyle=elbowEdgeStyle;elbow=vertical;strokeWidth=4;endArrow=block;endFill=1;fontStyle=1;strokeColor=#23445D;entryX=0.5;entryY=0;entryDx=0;entryDy=0;exitX=0.695;exitY=1.075;exitDx=0;exitDy=0;exitPerimeter=0;" parent="1" source="3" target="13" edge="1">
          <mxGeometry x="342" y="285.5" width="100" height="100" as="geometry">
            <mxPoint x="750" y="620" as="sourcePoint" />
            <mxPoint x="1050" y="670" as="targetPoint" />
            <Array as="points">
              <mxPoint x="910" y="690" />
              <mxPoint x="1180" y="650" />
              <mxPoint x="1170" y="650" />
              <mxPoint x="920" y="760" />
              <mxPoint x="972" y="675.5" />
            </Array>
          </mxGeometry>
        </mxCell>
        <mxCell id="14sCDKMBMeuCPlmQCyw3-50" value="20%" style="ellipse;whiteSpace=wrap;html=1;aspect=fixed;fontStyle=1;fillColor=#1ba1e2;fontColor=#ffffff;strokeColor=#006EAF;strokeWidth=2;" vertex="1" parent="1">
          <mxGeometry x="186" y="727" width="30" height="30" as="geometry" />
        </mxCell>
        <mxCell id="14sCDKMBMeuCPlmQCyw3-53" value="מנהל תחום אנליטיקה&#xa;יואב שור" style="rounded=1;fillColor=#97D077;strokeColor=none;shadow=1;gradientColor=none;fontStyle=1;fontColor=#FFFFFF;fontSize=14;" vertex="1" parent="1">
          <mxGeometry x="468" y="440" width="200" height="60" as="geometry" />
        </mxCell>
        <mxCell id="14sCDKMBMeuCPlmQCyw3-54" value="" style="edgeStyle=elbowEdgeStyle;elbow=vertical;strokeWidth=4;endArrow=block;endFill=1;fontStyle=1;dashed=1;strokeColor=#CCCCCC;entryX=0.5;entryY=0;entryDx=0;entryDy=0;" edge="1" parent="1" source="3">
          <mxGeometry x="22" y="165.5" width="100" height="100" as="geometry">
            <mxPoint x="490" y="391" as="sourcePoint" />
            <mxPoint x="548" y="450" as="targetPoint" />
            <Array as="points">
              <mxPoint x="508" y="390" />
            </Array>
          </mxGeometry>
        </mxCell>
      </root>
    </mxGraphModel>
  </diagram>
</mxfile>
